{
  "accessors": [
    {
      "bufferView": 2,
      "componentType": 5126,
      "count": 45986,
      "max": [
        0.09100690484046936,
        0.17940610647201538,
        0.14493681490421295
      ],
      "min": [
        -0.09030181914567947,
        -0.050696637481451035,
        -0.04605773463845253
      ],
      "type": "VEC3"
    },
    {
      "bufferView": 2,
      "byteOffset": 551832,
      "componentType": 5126,
      "count": 45986,
      "max": [
        0.9999763369560242,
        0.9999962449073792,
        0.9999856948852539
      ],
      "min": [
        -0.999971866607666,
        -0.9997597336769104,
        -0.9999816417694092
      ],
      "type": "VEC3"
    },
    {
      "bufferView": 1,
      "componentType": 5126,
      "count": 45986,
      "max": [
        0.9999750256538391,
        0.9989435076713562
      ],
      "min": [
        4.308652933104895e-06,
        1.7612350347917527e-05
      ],
      "type": "VEC2"
    },
    {
      "bufferView": 1,
      "byteOffset": 367888,
      "componentType": 5126,
      "count": 45986,
      "max": [
        0.9999750256538391,
        0.9989435076713562
      ],
      "min": [
        4.308652933104895e-06,
        1.7612350347917527e-05
      ],
      "type": "VEC2"
    },
    {
      "bufferView": 1,
      "byteOffset": 735776,
      "componentType": 5126,
      "count": 45986,
      "max": [
        0.9999750256538391,
        0.9989435076713562
      ],
      "min": [
        4.308652933104895e-06,
        1.7612350347917527e-05
      ],
      "type": "VEC2"
    },
    {
      "bufferView": 1,
      "byteOffset": 1103664,
      "componentType": 5126,
      "count": 45986,
      "max": [
        0.9999750256538391,
        0.9989435076713562
      ],
      "min": [
        4.308652933104895e-06,
        1.7612350347917527e-05
      ],
      "type": "VEC2"
    },
    {
      "bufferView": 1,
      "byteOffset": 1471552,
      "componentType": 5126,
      "count": 45986,
      "max": [
        0.9999750256538391,
        0.9989435076713562
      ],
      "min": [
        4.308652933104895e-06,
        1.7612350347917527e-05
      ],
      "type": "VEC2"
    },
    {
      "bufferView": 0,
      "componentType": 5125,
      "count": 239175,
      "type": "SCALAR"
    }
  ],
  "asset": {
    "extras": {
      "author": "ayoc (https://sketchfab.com/ayoc)",
      "license": "CC-BY-NC-SA-4.0 (http://creativecommons.org/licenses/by-nc-sa/4.0/)",
      "source": "https://sketchfab.com/3d-models/eva-02-71d4fcf7d91d4ec8b1ee2fd671a2ec18",
      "title": "Eva 02"
    },
    "generator": "Sketchfab-12.51.0",
    "version": "2.0"
  },
  "bufferViews": [
    {
      "buffer": 0,
      "byteLength": 956700,
      "name": "floatBufferViews",
      "target": 34963
    },
    {
      "buffer": 0,
      "byteLength": 1839440,
      "byteOffset": 956700,
      "byteStride": 8,
      "name": "floatBufferViews",
      "target": 34962
    },
    {
      "buffer": 0,
      "byteLength": 1103664,
      "byteOffset": 2796140,
      "byteStride": 12,
      "name": "floatBufferViews",
      "target": 34962
    }
  ],
  "buffers": [
    {
      "byteLength": 3899804,
      "uri": "scene.bin"
    }
  ],
  "extensionsUsed": [
    "KHR_materials_unlit"
  ],
  "images": [
    {
      "uri": "textures/material_0_baseColor.jpeg"
    }
  ],
  "materials": [
    {
      "extensions": {
        "KHR_materials_unlit": {}
      },
      "name": "material_0",
      "pbrMetallicRoughness": {
        "baseColorTexture": {
          "index": 0
        },
        "metallicFactor": 0.0
      }
    }
  ],
  "meshes": [
    {
      "name": "Object_0",
      "primitives": [
        {
          "attributes": {
            "NORMAL": 1,
            "POSITION": 0,
            "TEXCOORD_0": 2,
            "TEXCOORD_1": 3,
            "TEXCOORD_2": 4,
            "TEXCOORD_3": 5,
            "TEXCOORD_4": 6
          },
          "indices": 7,
          "material": 0,
          "mode": 4
        }
      ]
    }
  ],
  "nodes": [
    {
      "children": [
        1
      ],
      "matrix": [
        1.0,
        0.0,
        0.0,
        0.0,
        0.0,
        2.220446049250313e-16,
        -1.0,
        0.0,
        0.0,
        1.0,
        2.220446049250313e-16,
        0.0,
        0.0,
        0.0,
        0.0,
        1.0
      ],
      "name": "Sketchfab_model"
    },
    {
      "children": [
        2
      ],
      "name": "root"
    },
    {
      "children": [
        3
      ],
      "matrix": [
        1.0,
        0.0,
        0.0,
        0.0,
        0.0,
        2.220446049250313e-16,
        1.0,
        0.0,
        0.0,
        -1.0,
        2.220446049250313e-16,
        0.0,
        0.0,
        0.0,
        0.0,
        1.0
      ],
      "name": "GLTF_SceneRootNode"
    },
    {
      "children": [
        4
      ],
      "name": "_0"
    },
    {
      "mesh": 0,
      "name": "Object_4"
    }
  ],
  "samplers": [
    {
      "magFilter": 9729,
      "minFilter": 9987,
      "wrapS": 10497,
      "wrapT": 10497
    }
  ],
  "scene": 0,
  "scenes": [
    {
      "name": "Sketchfab_Scene",
      "nodes": [
        0
      ]
    }
  ],
  "textures": [
    {
      "sampler": 0,
      "source": 0
    }
  ]
}
